<?xml version="1.0" encoding="UTF-8" standalone="no"?>
<svg
   height="800"
   width="1200"
   version="1.0"
   viewBox="-237.15 -110.25 2055.3 661.5"
   id="svg1"
   sodipodi:docname="Fortnite.svg"
   xmlns:inkscape="http://www.inkscape.org/namespaces/inkscape"
   xmlns:sodipodi="http://sodipodi.sourceforge.net/DTD/sodipodi-0.dtd"
   xmlns="http://www.w3.org/2000/svg"
   xmlns:svg="http://www.w3.org/2000/svg">
  <defs
     id="defs1" />
  <sodipodi:namedview
     id="namedview1"
     pagecolor="#ffffff"
     bordercolor="#000000"
     borderopacity="0.25"
     inkscape:showpageshadow="2"
     inkscape:pageopacity="0.0"
     inkscape:pagecheckerboard="0"
     inkscape:deskcolor="#d1d1d1" />
  <path
     d="M 0,220.5 C 0,341.8 0.3,441 0.7,441 c 0.6,0 82.1,-15.1 92.1,-17.1 l 5.2,-1 V 261 h 62 v -14.8 c 0,-8.1 0.3,-29.2 0.7,-47 L 161.3,167 H 98 V 96 h 36.5 C 154.6,96 171,95.8 171,95.5 171,94.4 179,9 179.5,4.7 L 180.1,0 H 0 Z M 1495.8,12.9 1416,19.5 v 398.4 l 3.3,0.5 c 2.9,0.5 157.4,11.7 160.5,11.6 0.9,0 1.2,-10.6 1.2,-49.5 V 331 h -68 v -72 h 58 v -86 h -60 v -57 l 2.3,-0.4 c 1.2,-0.3 11.4,-0.7 22.7,-1.1 11.3,-0.3 26,-0.8 32.8,-1.2 l 12.2,-0.6 V 6 l -2.7,0.1 c -1.6,0.1 -38.7,3.1 -82.5,6.8 z M 983.5,26.7 c 1,10 12.4,160.7 12.2,160.9 -0.1,0.2 -14.8,-35.9 -32.7,-80.2 -17.8,-44.3 -32.8,-81 -33.2,-81.7 -0.6,-1.1 -28.2,4 -73.5,13.6 L 852,40.2 V 384 h 89 l -0.5,-7.2 c -1,-13.4 -4.7,-124.2 -4.3,-128.6 0.3,-3.9 3.3,2.9 31.7,71.5 17.2,41.7 31.8,76.2 32.2,76.8 0.6,0.6 14.5,-0.3 38.1,-2.3 20.5,-1.8 37.3,-3.4 37.3,-3.5 0.1,-0.1 -0.4,-72.2 -1.1,-160.2 -0.7,-88 -1.3,-171.1 -1.3,-184.8 L 1073,21 h -90.1 z m -704,0.4 c -59.8,4 -92.7,44.9 -103.1,127.9 -2.1,17.2 -3,75.6 -1.5,96 5,66.2 22.9,109.2 54.7,131.1 17.1,11.7 42.8,18 68.2,16.5 28.9,-1.6 48.6,-9.8 66.3,-27.5 14.5,-14.5 22.4,-28.1 30,-51.3 10.6,-32.4 15.4,-80.8 13,-131.2 C 404.4,132.2 395.9,97.1 378.4,70.2 361.7,44.6 335.3,29.3 304.5,27.4 299.6,27.1 294.4,26.8 293,26.6 c -1.4,-0.1 -7.4,0.1 -13.5,0.5 z m 14.1,78.6 c 7.3,7.9 10.4,39.4 10.4,106.8 0,83 -5.2,117.5 -16.6,110.1 -4.9,-3.3 -8.6,-19.4 -10.4,-46.1 -1.3,-19.5 -1.3,-108.8 0,-127.5 1.9,-26.4 5.3,-41 10.4,-44.5 2.8,-2 3.3,-1.9 6.2,1.2 z M 420,208.9 V 391 h 91.7 l 0.6,-12.7 c 0.4,-7.1 1.2,-30.1 1.8,-51.3 0.6,-21.2 1.4,-39.8 1.8,-41.3 0.5,-2.1 4.8,11.4 18,57 9.6,32.9 17.7,60.2 18.1,60.6 0.8,0.9 94.6,-6.5 95.6,-7.5 0.3,-0.4 -10.1,-33.1 -23.1,-72.9 l -23.6,-72.2 5,-4.4 c 16.6,-14.5 30.3,-42.5 34.2,-70.2 1.7,-12.1 0.6,-42.1 -2,-53.2 -10,-43.5 -36.5,-77.3 -70.3,-89.9 -14.7,-5.4 -13.5,-5.3 -83,-5.7 L 420,26.9 Z m 103.1,-95.8 c 7.1,3.5 12.9,12.5 16,24.9 2.1,8.3 1.8,34.6 -0.5,43 -4.3,15.8 -11.9,25 -23.3,28.5 l -2.3,0.6 V 110 l 3.3,0.7 c 1.7,0.3 4.8,1.4 6.8,2.4 z M 643,74.5 V 121 h 51 v 268 h 96 V 137 h 52 V 44 l -2.2,-0.4 C 837.7,43.1 647,27.9 644.3,28 c -1,0 -1.3,10 -1.3,46.5 z m 451,145 V 401 h 99 V 38 h -99 z M 1306,50.6 c -54.2,2.9 -99.3,5.3 -100.2,5.3 -1.7,0.1 -1.8,3 -1.8,47.1 v 47 h 51 v 263 h 97 V 139 h 54 V 92 c 0,-25.9 -0.3,-46.9 -0.7,-46.9 -0.5,0.1 -45.1,2.5 -99.3,5.5 z"
     id="path1" />
</svg>
